<svg xmlns="http://www.w3.org/2000/svg" xmlns:xlink="http://www.w3.org/1999/xlink" width="2000" zoomAndPan="magnify" viewBox="0 0 1500 1499.999933" height="2000" preserveAspectRatio="xMidYMid meet" version="1.0"><defs><g/><clipPath id="fe6b21b60e"><path d="M 318.59375 529 L 640.34375 529 L 640.34375 787 L 318.59375 787 Z M 318.59375 529 " clip-rule="nonzero"/></clipPath><clipPath id="03a8a91a0e"><path d="M 835.164062 535.914062 L 1231.914062 535.914062 L 1231.914062 787 L 835.164062 787 Z M 835.164062 535.914062 " clip-rule="nonzero"/></clipPath><clipPath id="4b23215b59"><rect x="0" width="1339" y="0" height="842"/></clipPath><clipPath id="6ae02e4098"><path d="M 29.433594 528.613281 L 342.933594 528.613281 L 342.933594 789 L 29.433594 789 Z M 29.433594 528.613281 " clip-rule="nonzero"/></clipPath><clipPath id="60456a59c8"><path d="M 602.261719 529 L 885.761719 529 L 885.761719 787 L 602.261719 787 Z M 602.261719 529 " clip-rule="nonzero"/></clipPath><clipPath id="5c06654e30"><path d="M 1083.46875 529 L 1477.839844 529 L 1477.839844 787 L 1083.46875 787 Z M 1083.46875 529 " clip-rule="nonzero"/></clipPath><clipPath id="bcd92d1b18"><path d="M 3 0.71875 L 589.238281 0.71875 L 589.238281 376 L 3 376 Z M 3 0.71875 " clip-rule="nonzero"/></clipPath><clipPath id="71a20ff7c7"><path d="M 579.496094 0.789062 L 589.042969 375.242188 L 9.8125 390.007812 L 0.265625 15.558594 Z M 579.496094 0.789062 " clip-rule="nonzero"/></clipPath><clipPath id="0229634165"><path d="M 579.496094 0.789062 L 589.042969 375.242188 L 7.546875 284.550781 L 3.375 120.996094 Z M 579.496094 0.789062 " clip-rule="nonzero"/></clipPath><clipPath id="646b0cd589"><path d="M 0.160156 0.71875 L 586.238281 0.71875 L 586.238281 375.359375 L 0.160156 375.359375 Z M 0.160156 0.71875 " clip-rule="nonzero"/></clipPath><clipPath id="8d10549399"><path d="M 576.496094 0.789062 L 586.042969 375.242188 L 6.8125 390.007812 L -2.734375 15.558594 Z M 576.496094 0.789062 " clip-rule="nonzero"/></clipPath><clipPath id="0aea83f615"><path d="M 576.496094 0.789062 L 586.042969 375.242188 L 4.546875 284.550781 L 0.375 120.996094 Z M 576.496094 0.789062 " clip-rule="nonzero"/></clipPath><clipPath id="b90b570fad"><rect x="0" width="587" y="0" height="376"/></clipPath><clipPath id="ae74b60ead"><path d="M 174.003906 96.128906 L 415.941406 96.128906 L 415.941406 294.964844 L 174.003906 294.964844 Z M 174.003906 96.128906 " clip-rule="nonzero"/></clipPath><clipPath id="dcb1d7383e"><rect x="0" width="590" y="0" height="391"/></clipPath></defs><rect x="-150" width="1800" fill="#ffffff" y="-149.999993" height="1799.99992" fill-opacity="1"/><rect x="-150" width="1800" fill="#ffffff" y="-149.999993" height="1799.99992" fill-opacity="1"/><g clip-path="url(#fe6b21b60e)"><path fill="#ff3131" d="M 1455.574219 591.613281 C 1427.644531 658.132812 1372.066406 705.9375 1307.273438 735.308594 C 1200.4375 783.6875 1082.660156 795.496094 966.894531 779.082031 C 893.753906 768.714844 822.050781 747.117188 754.664062 716.304688 C 689.296875 686.355469 626.230469 650.070312 556.832031 629.625 C 376.277344 576.0625 159.726562 630.777344 26.6875 760.074219 C 115.667969 626.171875 279.230469 540.933594 443.949219 530.851562 C 489.734375 527.972656 535.523438 530.851562 579.871094 540.355469 C 673.457031 557.921875 754.378906 608.605469 837.597656 642.871094 C 1016.714844 713.136719 1350.753906 764.96875 1463.636719 569.441406 C 1461.335938 576.929688 1458.742188 584.414062 1455.574219 591.613281 Z M 1455.574219 591.613281 " fill-opacity="1" fill-rule="nonzero"/></g><g clip-path="url(#03a8a91a0e)"><path fill="#ff3131" d="M 1459.804688 591.613281 C 1431.875 658.132812 1376.296875 705.9375 1311.503906 735.308594 C 1204.667969 783.6875 1086.890625 795.496094 971.125 779.082031 C 897.984375 768.714844 826.28125 747.117188 758.894531 716.304688 C 693.527344 686.355469 630.460938 650.070312 561.0625 629.625 C 380.507812 576.0625 163.957031 630.777344 30.917969 760.074219 C 119.898438 626.171875 283.460938 540.933594 448.179688 530.851562 C 493.964844 527.972656 539.753906 530.851562 584.101562 540.355469 C 677.6875 557.921875 758.609375 608.605469 841.828125 642.871094 C 1020.945312 713.136719 1354.984375 764.96875 1467.867188 569.441406 C 1465.566406 576.929688 1462.972656 584.414062 1459.804688 591.613281 Z M 1459.804688 591.613281 " fill-opacity="1" fill-rule="nonzero"/></g><g transform="matrix(1, 0, 0, 1, 86, 296)"><g clip-path="url(#4b23215b59)"><g fill="#1800ad" fill-opacity="1"><g transform="translate(0.902504, 616.876944)"><g><path d="M 326.0625 -217.65625 C 310.9375 -259.675781 297.488281 -296.789062 285.71875 -329 C 273.957031 -361.21875 262.472656 -390.769531 251.265625 -417.65625 C 235.578125 -380.675781 221.429688 -346.5 208.828125 -315.125 C 196.222656 -283.757812 184.039062 -251.269531 172.28125 -217.65625 Z M 251.265625 -579.84375 C 254.066406 -578.726562 258.96875 -577.75 265.96875 -576.90625 C 272.976562 -576.0625 278.722656 -575.640625 283.203125 -575.640625 C 286.003906 -575.640625 290.066406 -575.921875 295.390625 -576.484375 C 300.710938 -577.046875 307.296875 -578.164062 315.140625 -579.84375 L 347.90625 -492.453125 C 365.269531 -445.953125 383.753906 -397.628906 403.359375 -347.484375 C 422.972656 -297.347656 442.023438 -249.445312 460.515625 -203.78125 C 479.003906 -158.125 495.953125 -116.945312 511.359375 -80.25 C 526.765625 -43.550781 539.226562 -15.398438 548.75 4.203125 C 528.582031 2.523438 512.753906 1.40625 501.265625 0.84375 C 489.785156 0.28125 480.960938 0 474.796875 0 C 469.203125 0 461.78125 0.140625 452.53125 0.421875 C 443.289062 0.703125 426.90625 1.960938 403.375 4.203125 L 375.640625 -81.515625 C 373.398438 -88.234375 370.878906 -95.9375 368.078125 -104.625 C 365.273438 -113.3125 362.332031 -121.710938 359.25 -129.828125 C 356.164062 -137.953125 353.503906 -145.515625 351.265625 -152.515625 C 349.023438 -159.523438 347.066406 -164.710938 345.390625 -168.078125 C 336.984375 -168.628906 322.695312 -169.046875 302.53125 -169.328125 C 282.363281 -169.609375 261.351562 -169.75 239.5 -169.75 C 229.414062 -169.75 219.332031 -169.609375 209.25 -169.328125 C 199.164062 -169.046875 189.921875 -168.90625 181.515625 -168.90625 C 173.109375 -168.90625 165.960938 -168.765625 160.078125 -168.484375 C 154.203125 -168.210938 150.984375 -168.078125 150.421875 -168.078125 C 139.773438 -139.503906 129.550781 -111.207031 119.75 -83.1875 C 109.945312 -55.175781 101.125 -26.046875 93.28125 4.203125 C 82.070312 2.523438 73.523438 1.40625 67.640625 0.84375 C 61.765625 0.28125 57.144531 0 53.78125 0 C 50.414062 0 45.789062 0.28125 39.90625 0.84375 C 34.03125 1.40625 24.648438 2.523438 11.765625 4.203125 C 25.210938 -26.609375 39.640625 -60.082031 55.046875 -96.21875 C 70.453125 -132.351562 85.859375 -169.046875 101.265625 -206.296875 C 116.671875 -243.554688 131.9375 -280.675781 147.0625 -317.65625 C 162.1875 -354.632812 176.332031 -389.507812 189.5 -422.28125 C 202.664062 -455.050781 214.570312 -485.019531 225.21875 -512.1875 C 235.863281 -539.363281 244.546875 -561.914062 251.265625 -579.84375 Z M 251.265625 -579.84375 "/></g></g></g><g fill="#1800ad" fill-opacity="1"><g transform="translate(495.877106, 616.876944)"><g><path d="M 236.140625 -274.796875 C 230.535156 -274.796875 224.507812 -274.65625 218.0625 -274.375 C 211.625 -274.09375 205.601562 -273.953125 200 -273.953125 L 199.171875 -192.4375 C 199.171875 -186.28125 199.171875 -179.976562 199.171875 -173.53125 C 199.171875 -167.09375 199.171875 -158.550781 199.171875 -147.90625 C 199.171875 -137.257812 199.304688 -123.8125 199.578125 -107.5625 C 199.859375 -91.320312 200.28125 -70.59375 200.84375 -45.375 C 211.488281 -44.257812 219.613281 -43.703125 225.21875 -43.703125 C 230.820312 -43.703125 237.546875 -43.703125 245.390625 -43.703125 C 272.835938 -43.703125 295.382812 -53.925781 313.03125 -74.375 C 330.675781 -94.820312 339.5 -122.691406 339.5 -157.984375 C 339.5 -196.640625 331.09375 -225.488281 314.28125 -244.53125 C 297.476562 -263.582031 271.429688 -273.671875 236.140625 -274.796875 Z M 202.53125 -525.21875 C 201.96875 -511.21875 201.265625 -493.007812 200.421875 -470.59375 C 199.585938 -448.1875 199.171875 -426.898438 199.171875 -406.734375 L 200 -322.703125 L 237.828125 -322.703125 C 264.710938 -322.703125 287.398438 -332.082031 305.890625 -350.84375 C 324.378906 -369.613281 333.625 -395.804688 333.625 -429.421875 C 333.625 -460.234375 326.195312 -484.320312 311.34375 -501.6875 C 296.5 -519.0625 273.113281 -527.75 241.1875 -527.75 C 236.695312 -527.75 231.09375 -527.609375 224.375 -527.328125 C 217.65625 -527.046875 210.375 -526.34375 202.53125 -525.21875 Z M 68.0625 -575.640625 C 80.945312 -574.523438 92.289062 -573.546875 102.09375 -572.703125 C 111.90625 -571.859375 124.09375 -571.4375 138.65625 -571.4375 C 160.507812 -571.4375 185.160156 -572.132812 212.609375 -573.53125 C 240.054688 -574.9375 264.707031 -575.640625 286.5625 -575.640625 C 344.269531 -575.640625 387.269531 -564.4375 415.5625 -542.03125 C 443.851562 -519.625 458 -487.410156 458 -445.390625 C 458 -427.460938 454.632812 -410.796875 447.90625 -395.390625 C 441.1875 -379.984375 431.800781 -366.253906 419.75 -354.203125 C 407.707031 -342.160156 393.28125 -332.078125 376.46875 -323.953125 C 359.664062 -315.828125 341.179688 -310.085938 321.015625 -306.734375 L 321.015625 -305.046875 C 341.742188 -303.367188 361.351562 -298.890625 379.84375 -291.609375 C 398.332031 -284.328125 414.4375 -274.519531 428.15625 -262.1875 C 441.882812 -249.863281 452.671875 -235.4375 460.515625 -218.90625 C 468.359375 -202.382812 472.28125 -184.039062 472.28125 -163.875 C 472.28125 -111.207031 454.628906 -70.023438 419.328125 -40.328125 C 384.035156 -10.640625 336.140625 4.203125 275.640625 4.203125 C 267.796875 4.203125 258.410156 3.921875 247.484375 3.359375 C 236.554688 2.796875 225.347656 2.375 213.859375 2.09375 C 202.378906 1.820312 191.316406 1.40625 180.671875 0.84375 C 170.023438 0.28125 161.0625 0 153.78125 0 C 139.21875 0 124.789062 0.414062 110.5 1.25 C 96.21875 2.09375 82.070312 3.078125 68.0625 4.203125 C 69.1875 -18.203125 70.164062 -40.609375 71 -63.015625 C 71.84375 -85.429688 72.546875 -106.441406 73.109375 -126.046875 C 73.671875 -145.660156 74.09375 -163.03125 74.375 -178.15625 C 74.65625 -193.28125 74.796875 -204.765625 74.796875 -212.609375 L 74.796875 -358.828125 C 74.796875 -395.804688 74.234375 -433.203125 73.109375 -471.015625 C 71.992188 -508.835938 70.3125 -543.710938 68.0625 -575.640625 Z M 68.0625 -575.640625 "/></g></g></g><g fill="#1800ad" fill-opacity="1"><g transform="translate(943.791168, 616.876944)"><g><path d="M 225.21875 -586.578125 C 255.46875 -586.578125 281.796875 -582.929688 304.203125 -575.640625 C 326.617188 -568.359375 345.945312 -558.273438 362.1875 -545.390625 C 357.707031 -534.191406 353.226562 -521.445312 348.75 -507.15625 C 344.269531 -492.875 339.785156 -477.890625 335.296875 -462.203125 L 322.703125 -462.203125 C 304.773438 -510.378906 270.878906 -534.46875 221.015625 -534.46875 C 208.691406 -534.46875 197.207031 -532.503906 186.5625 -528.578125 C 175.914062 -524.660156 166.671875 -519.195312 158.828125 -512.1875 C 150.984375 -505.1875 144.816406 -497.066406 140.328125 -487.828125 C 135.847656 -478.585938 133.609375 -468.925781 133.609375 -458.84375 C 133.609375 -436.425781 141.453125 -417.796875 157.140625 -402.953125 C 172.828125 -388.109375 196.078125 -373.398438 226.890625 -358.828125 C 263.867188 -341.460938 292.582031 -325.914062 313.03125 -312.1875 C 333.476562 -298.46875 348.742188 -284.601562 358.828125 -270.59375 C 379.003906 -242.582031 389.09375 -210.648438 389.09375 -174.796875 C 389.09375 -146.785156 383.769531 -121.15625 373.125 -97.90625 C 362.476562 -74.65625 347.488281 -54.625 328.15625 -37.8125 C 308.832031 -21.007812 285.441406 -7.988281 257.984375 1.25 C 230.535156 10.5 200.003906 15.125 166.390625 15.125 C 140.617188 15.125 115.40625 12.039062 90.75 5.875 C 66.101562 -0.28125 46.21875 -9.242188 31.09375 -21.015625 C 37.8125 -43.421875 43.269531 -64.425781 47.46875 -84.03125 C 51.675781 -103.644531 54.34375 -118.210938 55.46875 -127.734375 L 71.4375 -127.734375 C 78.15625 -97.484375 91.597656 -74.789062 111.765625 -59.65625 C 131.929688 -44.53125 157.144531 -36.96875 187.40625 -36.96875 C 219.332031 -36.96875 243.695312 -44.953125 260.5 -60.921875 C 277.3125 -76.890625 285.71875 -97.476562 285.71875 -122.6875 C 285.71875 -143.976562 278.710938 -162.328125 264.703125 -177.734375 C 250.703125 -193.140625 227.734375 -208.40625 195.796875 -223.53125 C 171.710938 -234.738281 149.863281 -245.800781 130.25 -256.71875 C 110.644531 -267.644531 93.835938 -280.113281 79.828125 -294.125 C 65.828125 -308.132812 54.90625 -324.101562 47.0625 -342.03125 C 39.21875 -359.957031 35.296875 -381.523438 35.296875 -406.734375 C 35.296875 -434.179688 40.195312 -458.96875 50 -481.09375 C 59.800781 -503.226562 73.101562 -522.140625 89.90625 -537.828125 C 106.71875 -553.515625 126.75 -565.5625 150 -573.96875 C 173.25 -582.375 198.320312 -586.578125 225.21875 -586.578125 Z M 225.21875 -586.578125 "/></g></g></g></g></g><g clip-path="url(#6ae02e4098)"><path fill="#ff3131" d="M 1485.988281 590.253906 C 1457.515625 658.0625 1400.859375 706.792969 1334.8125 736.734375 C 1225.910156 786.046875 1105.851562 798.082031 987.847656 781.351562 C 913.289062 770.785156 840.195312 748.769531 771.507812 717.359375 C 704.875 686.832031 640.585938 649.84375 569.84375 629.003906 C 385.792969 574.402344 165.050781 630.175781 29.433594 761.976562 C 120.136719 625.480469 286.871094 538.59375 454.777344 528.316406 C 501.449219 525.382812 548.121094 528.316406 593.328125 538.003906 C 688.726562 555.910156 771.214844 607.574219 856.046875 642.503906 C 1038.628906 714.128906 1379.136719 766.96875 1494.207031 567.652344 C 1491.859375 575.285156 1489.214844 582.917969 1485.988281 590.253906 Z M 1485.988281 590.253906 " fill-opacity="1" fill-rule="nonzero"/></g><g clip-path="url(#60456a59c8)"><path fill="#ff3131" d="M 1460.027344 591.613281 C 1432.09375 658.132812 1376.515625 705.9375 1311.722656 735.308594 C 1204.886719 783.6875 1087.109375 795.496094 971.347656 779.082031 C 898.203125 768.714844 826.5 747.117188 759.117188 716.304688 C 693.746094 686.355469 630.683594 650.070312 561.28125 629.625 C 380.726562 576.0625 164.175781 630.777344 31.136719 760.074219 C 120.117188 626.171875 283.683594 540.933594 448.398438 530.851562 C 494.1875 527.972656 539.972656 530.851562 584.320312 540.355469 C 677.910156 557.921875 758.828125 608.605469 842.050781 642.871094 C 1021.164062 713.136719 1355.207031 764.96875 1468.089844 569.441406 C 1465.785156 576.929688 1463.195312 584.414062 1460.027344 591.613281 Z M 1460.027344 591.613281 " fill-opacity="1" fill-rule="nonzero"/></g><g clip-path="url(#5c06654e30)"><path fill="#ff3131" d="M 1469.730469 591.613281 C 1441.796875 658.132812 1386.21875 705.9375 1321.425781 735.308594 C 1214.59375 783.6875 1096.8125 795.496094 981.050781 779.082031 C 907.90625 768.714844 836.203125 747.117188 768.820312 716.304688 C 703.453125 686.355469 640.386719 650.070312 570.988281 629.625 C 390.433594 576.0625 173.882812 630.777344 40.839844 760.074219 C 129.820312 626.171875 293.386719 540.933594 458.105469 530.851562 C 503.890625 527.972656 549.675781 530.851562 594.023438 540.355469 C 687.613281 557.921875 768.53125 608.605469 851.753906 642.871094 C 1030.871094 713.136719 1364.910156 764.96875 1477.792969 569.441406 C 1475.488281 576.929688 1472.898438 584.414062 1469.730469 591.613281 Z M 1469.730469 591.613281 " fill-opacity="1" fill-rule="nonzero"/></g><g transform="matrix(1, 0, 0, 1, 449, 960)"><g clip-path="url(#dcb1d7383e)"><g clip-path="url(#bcd92d1b18)"><g clip-path="url(#71a20ff7c7)"><g clip-path="url(#0229634165)"><g transform="matrix(1, 0, 0, 1, 3, 0.000000000000113687)"><g clip-path="url(#b90b570fad)"><g clip-path="url(#646b0cd589)"><g clip-path="url(#8d10549399)"><g clip-path="url(#0aea83f615)"><path fill="#1800ad" d="M 576.496094 0.789062 L 586.042969 375.242188 L 6.8125 390.007812 L -2.734375 15.558594 Z M 576.496094 0.789062 " fill-opacity="1" fill-rule="nonzero"/></g></g></g></g></g></g></g></g><g clip-path="url(#ae74b60ead)"><path fill="#ffffff" d="M 408.632812 96.136719 L 377.453125 96.136719 C 372.914062 96.136719 370.347656 98.699219 370.347656 103.238281 L 370.347656 170.726562 L 313.617188 170.726562 L 313.617188 103.238281 C 313.617188 98.699219 311.101562 96.136719 306.5625 96.136719 L 212.285156 96.136719 C 250.023438 96.136719 280.363281 126.476562 280.363281 164.214844 C 280.363281 187.996094 266.207031 209.699219 245.238281 221.097656 L 296.199219 285.871094 C 299.902344 290.410156 297.929688 294.652344 291.957031 294.652344 L 306.511719 294.652344 C 311.050781 294.652344 313.617188 292.085938 313.617188 287.550781 L 313.617188 214.386719 L 370.347656 214.386719 L 370.347656 287.550781 C 370.347656 292.085938 372.914062 294.652344 377.453125 294.652344 L 408.632812 294.652344 C 413.171875 294.652344 415.734375 292.085938 415.734375 287.550781 L 415.734375 103.238281 C 415.734375 98.699219 413.171875 96.136719 408.632812 96.136719 Z M 246.867188 290.410156 L 198.570312 229.433594 L 181.105469 229.433594 L 181.105469 287.550781 C 181.105469 292.085938 178.539062 294.652344 174.003906 294.652344 L 255.699219 294.652344 C 252 294.652344 249.136719 293.519531 246.867188 290.410156 Z M 234.976562 164.214844 C 234.976562 149.761719 224.765625 138.710938 212.285156 138.710938 L 181.105469 138.710938 L 181.105469 189.769531 L 212.285156 189.769531 C 224.765625 189.722656 234.976562 178.671875 234.976562 164.214844 Z M 234.976562 164.214844 " fill-opacity="1" fill-rule="nonzero"/></g></g></g></svg>